<?xml version="1.0" encoding="UTF-8"?>
<svg id="Layer_2" data-name="Layer 2" xmlns="http://www.w3.org/2000/svg" viewBox="0 0 4433.84 2776.52">
  <defs>
    <style>
      .cls-1 {
        fill: #ff6700;
      }
    </style>
  </defs>
  <g id="Capa_1" data-name="Capa 1">
    <path class="cls-1" d="M877.41,2776.52h117.87c61.4-15.68,97.66-25.53,155.91-55.52,155.31-79.96,240.41-188.42,322.97-318.75,56.59-89.33,116.78-174.92,193.23-253.92,28.54-29.48,106.91-87.99,148.81-66.01,10.14,5.32,11.89,15.28,10.49,24.71l-6.31,42.57c-9.49,64.03,164.75-11.86,166.61,14.53,1.46,20.78-111.08,114.32-142.19,187.72-21.25,50.11-3.51,103.71,49.25,134.72,37.9,22.27,83.85,19.83,121.43-3.13,130.36-79.65,229.43-198.74,298.84-318,41.77-71.76,76.88-142.58,102.59-219.09l73.68-219.22c10.79-32.11,26.45-62.13,50.4-87.47,24.64-26.07,56.18-37.62,95.5-40.94,118.63-10.03,194.14-124.85,242.16-202.06,30.74-49.44,57.56-97.86,92.14-145.44,25.8-35.5,81.56-104.64,141.18-96.2,42.19,5.97,71.48,35.12,76.25,68.8,13.5,95.37-56.17,238.16-118.54,319.01-53.57,69.43-138.52,126.52-171.68,205.38-13.48,32.07-12.21,66.12,11.51,92.78,25.31,28.44,68.97,35.28,103.41,13.9,24.32-15.1,42.8-34.87,57.19-57.43,27.85-43.66,47.99-88.61,61.9-136.67l42.32-146.18c39.71-137.18,100.87-221.25,198.46-336.2l115.7-136.27c45.39-53.47,76.07-113.36,80.72-178.89,1.47-20.7-4.48-44.09-24.12-56.73-27.67-17.81-66.99-13.87-95.5.71-25.04,12.81-43.51,29.35-64.35,46.06-31.36,25.15-96.91,74.56-139.57,41.9-45.68-34.97,18.78-96.16,56.27-122.74,28.12-19.94,60.89-33.91,92.99-49.64,94.36-46.25,97.19-88.28,160.25-148.84,82.64-79.35,159.74-29.11,286.99-110.9l284.58-182.91c113.51-72.96,238.28-173.16,307.07-277.58-.51-3.58-4.59-3.52-3.92.9-146.84,144.82-332.86,260.32-546.45,333.59l-148.78,51.04c-65.37,22.43-127.98,42.99-192.52,67.73-222.64,85.32-408.46,219.06-535.97,389.14l-92.13,122.89c-46.53,62.06-95.18,119.72-151.81,176.61-96.9,97.35-194.62,191.09-299.48,282.92-73.45,64.32-298.8,246.76-413.62,206.93-46.52-16.14-73.19-52.72-78.54-92.84-8.18-61.3,21.06-127.87,12.68-187.31-9.48-67.24-70.19-102.16-151.15-98.45-170.44,7.81-332.37,93.9-451.07,187.88-77.17,61.1-136.39,129.93-184.61,207.93l-101.56,164.3c-136.41,220.66-401.2,338.25-686.46,398.93-77.65,16.52-151.02,33.9-222.07,63.44-115.76,48.14-203.59,121.36-183.5,234.47,19.59,110.26,139.33,148.59,263.53,152.48,86.4,2.71,170.04-7.8,253.37-27.74,236.38-56.57,436.68-177.06,577.72-339.32,64.23-73.9,125.63-145.66,181.6-223.78,44.16-61.64,119.19-150.12,196.63-183.72,9.14-3.97,23.08-3.07,29.99,2.24,32.58,25.02-88.87,171.9-110.77,201.67l-199.77,271.6c-65.29,88.77-141.03,167.78-226.94,243.99l-125.55,111.37c-9.35,8.3-11.58,21.36-7.73,32.01,6.37,17.6,37.76,17.18,42.46,23.05Z"/>
  </g>
</svg>