<?xml version="1.0" encoding="UTF-8"?>
<svg id="Layer_2" data-name="Layer 2" xmlns="http://www.w3.org/2000/svg" viewBox="0 0 1976.84 2549.31">
  <defs>
    <style>
      .cls-1 {
        fill: #f6f6f6;
      }
    </style>
  </defs>
  <g id="Capa_1" data-name="Capa 1">
    <path class="cls-1" d="M1976.84,504.48v67.77c-11.16,35.3-18.18,56.15-39.53,89.64-56.93,89.3-134.15,138.23-226.95,185.7-63.6,32.54-124.54,67.14-180.79,111.1-20.99,16.41-62.65,61.47-47,85.56,3.79,5.83,10.88,6.84,17.6,6.03l30.31-3.63c45.59-5.46-8.45,94.73,10.34,95.8,14.8.84,81.4-63.86,133.65-81.76,35.68-12.22,73.84-2.02,95.92,28.32,15.86,21.79,14.12,48.21-2.23,69.82-56.71,74.95-141.5,131.92-226.41,171.82-51.09,24.01-101.52,44.2-155.99,58.99l-156.08,42.37c-22.86,6.21-44.23,15.21-62.27,28.98-18.56,14.17-26.78,32.3-29.15,54.91-7.14,68.21-88.89,111.62-143.86,139.23-35.2,17.68-69.67,33.1-103.55,52.98-25.28,14.83-74.5,46.89-68.5,81.17,4.25,24.26,25,41.1,48.98,43.84,67.9,7.76,169.56-32.29,227.13-68.16,49.44-30.8,90.08-79.64,146.22-98.71,22.83-7.75,47.07-7.02,66.06,6.62,20.25,14.55,25.12,39.66,9.9,59.46-10.75,13.98-24.83,24.61-40.89,32.88-31.08,16.01-63.09,27.59-97.3,35.59l-104.07,24.33c-97.67,22.83-157.53,57.99-239.37,114.11l-97.02,66.52c-38.07,26.1-80.71,43.74-127.36,46.41-14.74.85-31.39-2.58-40.39-13.87-12.68-15.91-9.87-38.52.51-54.91,9.12-14.4,20.9-25.02,32.79-37,17.91-18.03,53.09-55.72,29.83-80.25-24.9-26.26-68.47,10.8-87.39,32.35-14.19,16.17-24.14,35.01-35.34,53.47-32.93,54.25-62.86,55.88-105.97,92.14-56.5,47.52-20.72,91.84-78.96,165.01l-130.23,163.62c-51.94,65.26-123.29,137.01-197.64,176.56-2.55-.29-2.5-2.64.64-2.25,103.11-84.43,185.34-191.38,237.51-314.19l36.34-85.55c15.97-37.59,30.61-73.58,48.22-110.7,60.74-128.01,155.96-234.85,277.06-308.16l87.5-52.97c44.19-26.75,85.24-54.72,125.75-87.29,69.31-55.71,136.05-111.9,201.43-172.19,45.79-42.23,175.69-171.8,147.33-237.82-11.49-26.75-37.54-42.08-66.1-45.16-43.64-4.7-91.04,12.11-133.36,7.29-47.87-5.45-72.73-40.35-70.09-86.91,5.56-98,66.85-191.1,133.77-259.35,43.5-44.37,92.51-78.42,148.04-106.14l116.98-58.4c157.11-78.43,240.83-230.68,284.03-394.69,11.76-44.65,24.14-86.83,45.17-127.68,34.27-66.56,86.41-117.06,166.94-105.51,78.5,11.26,105.79,80.11,108.56,151.52,1.93,49.68-5.55,97.77-19.75,145.68-40.27,135.91-126.07,251.08-241.59,332.17-52.62,36.93-103.71,72.23-159.33,104.41-43.89,25.39-106.88,68.53-130.8,113.06-2.82,5.26-2.18,13.27,1.6,17.24,17.81,18.73,122.39-51.1,143.59-63.69l193.37-114.86c63.2-37.54,119.46-81.09,173.72-130.48l79.29-72.19c5.91-5.38,15.2-6.66,22.79-4.45,12.53,3.66,12.23,21.71,16.41,24.41Z"/>
  </g>
</svg>