<?xml version="1.0" encoding="UTF-8"?>
<svg id="Layer_2" data-name="Layer 2" xmlns="http://www.w3.org/2000/svg" viewBox="0 0 2170.1 3197.88">
  <defs>
    <style>
      .cls-1 {
        fill: #f6f6f6;
      }
    </style>
  </defs>
  <g id="Capa_1" data-name="Capa 1">
    <path class="cls-1" d="M0,2584.65v-45.4c1.65-1.48,4.67-3.94,5.31-7.53,5.81-32.43,15.09-61.91,29.69-91.69,63.01-128.46,158.78-193.76,276.62-266.76,66.92-41.46,130.24-85.52,187.89-138.79,24.1-22.26,70.71-82.14,47.14-106.76-5.05-5.27-12.76-6.1-20.19-4.61l-33.19,6.67c-8.21,1.65-16.81.87-21.98-5.17-4.14-4.84-6.96-13.19-5.97-21.26l9.18-75.2c.52-4.25-.34-8.45-3.73-10.29-13.23-7.18-91.64,83.45-155.16,109.86-37.98,15.79-79.49,9.27-108.78-18.87-25.65-24.64-29.48-59.94-9.47-90.49,43.64-66.61,100.54-121.61,165.52-168.77,129.52-93.99,806.25-552.3,806.25-552.3,32.57-19.69,99.15-67.26,94.63-110.8-3.08-29.61-30.12-50.71-59-52.71-84.62-5.87-210.35,57.23-276.63,108.69-51.76,40.19-95.71,100.01-158.77,125.38-25.96,10.44-54.86,11.18-78.08-3.91-25.55-16.61-31.43-47.89-13.58-72.05,13.2-17.86,29.81-31.98,49.39-43.31,36.11-20.89,73.09-37.43,112.99-50.04l101.11-31.96c140.75-44.5,202.24-92.49,315.49-184.67,34.49-28.07,66.71-55.53,102.97-81.53,37.45-26.85,138.32-75.26,174.21-39.95,17.6,17.32,16.88,45.16,5.92,65.84-9.12,17.21-20.95,30.41-33.45,45-21.18,24.72-62.96,75.77-27.6,103.02,35.46,27.33,93.64-34.83,111.09-68.63l26.85-52.01c29.9-57.93,65.93-69.08,111.71-111.48,67-62.06,18.02-112.45,81.71-206.91l130.13-193.01c58.91-87.38,139.6-187.88,229.86-242.24-115.59,111.61-203.79,244.81-254.9,396.85l-72.37,215.28c-52.17,155.2-146.98,290.08-274.89,392.34-40.38,32.29-80.44,59.91-122.44,89.79-54.06,38.46-104.04,77.53-152.64,123.23-79.56,74.8-155.75,149.64-229.71,229.97-49.39,53.64-188.56,218.12-148.98,291.98,17.21,32.12,51.32,48.1,87.57,47.81,53.02-.44,100.45-22.28,154.31-21.25,47.54.91,83.4,33.14,88.94,81.02,11.89,102.89-44.14,217.26-103.79,299.44-55.45,76.39-125.13,135.12-205.75,183.62l-124.8,75.09c-180.79,108.77-264.57,299.5-300.83,499.81-14.82,81.84-36.43,173.08-92.15,236.26-36,40.81-85.16,60.22-139.24,56.12-153.89-11.67-156.73-215.91-134.95-328.57,30.54-157.96,111.03-301.66,231-408.67,67.36-60.07,136.16-113.81,209.64-165.38,49.5-34.75,119.8-90.2,143.64-145.52,2.98-6.91,1.39-13.83-.92-17.79-17.59-30.03-143.57,69.72-167.37,86.4l-190.22,133.3c-128.88,90.31-202.83,170.09-307.25,282.84-9.51,10.27-26.11,15.32-36.66,7.04-18.54-14.56-14.43-47.14-25.32-56.34Z"/>
  </g>
</svg>