<?xml version="1.0" encoding="UTF-8"?>
<svg id="Capa_2" data-name="Capa 2" xmlns="http://www.w3.org/2000/svg" viewBox="0 0 2835.15 2761.98">
  <defs>
    <style>
      .cls-1 {
        fill: #006cff;
      }
    </style>
  </defs>
  <g id="Capa_1-2" data-name="Capa 1">
    <path class="cls-1" d="M2835.15,546.57v73.42c-16.01,38.25-26.07,60.83-56.69,97.12-81.65,96.75-192.4,149.76-325.48,201.19-91.22,35.25-178.62,72.75-259.28,120.37-30.11,17.78-89.85,66.6-67.4,92.7,5.43,6.31,15.61,7.41,25.24,6.54l43.47-3.93c65.38-5.91-12.11,102.63,14.83,103.79,21.22.91,116.74-69.19,191.68-88.58,51.17-13.24,105.9-2.19,137.56,30.68,22.74,23.61,20.25,52.23-3.2,75.64-81.34,81.2-202.94,142.92-324.72,186.16-73.28,26.02-145.59,47.89-223.71,63.91l-223.85,45.9c-32.79,6.72-63.44,16.48-89.31,31.4-26.62,15.35-38.41,35-41.81,59.49-10.25,73.9-127.49,120.94-206.32,150.85-50.48,19.15-99.92,35.86-148.51,57.4-36.25,16.07-106.85,50.81-98.24,87.94,6.09,26.28,35.86,44.53,70.25,47.5,97.38,8.41,243.19-34.99,325.74-73.85,70.9-33.37,129.19-86.29,209.71-106.94,32.75-8.4,67.51-7.61,94.74,7.17,29.04,15.77,36.03,42.97,14.2,64.42-15.42,15.15-35.61,26.66-58.65,35.63-44.58,17.35-90.48,29.89-139.55,38.56l-149.26,26.36c-140.07,24.74-225.92,62.83-343.3,123.63l-139.15,72.07c-54.6,28.28-115.75,47.39-182.66,50.28-21.14.92-45.02-2.79-57.93-15.03-18.19-17.23-14.16-41.73.73-59.49,13.08-15.6,29.97-27.11,47.03-40.08,25.68-19.54,76.13-60.37,42.78-86.95-35.71-28.45-98.19,11.7-125.34,35.05-20.36,17.52-34.62,37.93-50.69,57.93-47.22,58.78-90.15,60.55-151.98,99.83-81.03,51.48-29.72,99.5-113.24,178.78l-186.77,177.27c-74.5,70.71-176.82,148.44-283.45,191.29-3.66-.32-3.59-2.86.92-2.44,147.88-91.47,265.82-207.35,340.64-340.4l52.12-92.68c22.9-40.72,43.9-79.72,69.16-119.93,87.12-138.69,223.68-254.44,397.36-333.87l125.48-57.39c63.37-28.98,122.24-59.29,180.34-94.57,99.41-60.36,195.12-121.23,288.89-186.55,65.68-45.75,251.97-186.13,211.3-257.65-16.48-28.98-53.84-45.59-94.8-48.93-62.59-5.1-130.57,13.12-191.27,7.9-68.66-5.91-104.31-43.72-100.53-94.16,7.97-106.17,95.88-207.04,191.85-280.99,62.39-48.07,132.67-84.96,212.32-115l167.77-63.27c225.32-84.97,345.39-249.92,407.36-427.62,16.87-48.37,34.62-94.08,64.78-138.33,49.16-72.11,123.92-126.82,239.42-114.31,112.59,12.2,151.72,86.79,155.7,164.16,2.77,53.82-7.96,105.92-28.33,157.83-57.76,147.25-180.8,272.02-346.49,359.88-75.46,40.01-148.73,78.26-228.51,113.12-62.94,27.51-153.29,74.25-187.6,122.49-4.05,5.69-3.13,14.38,2.29,18.68,25.55,20.29,175.53-55.36,205.93-69l277.33-124.44c90.64-40.67,171.32-87.85,249.14-141.37l113.72-78.21c8.47-5.83,21.81-7.22,32.68-4.82,17.97,3.97,17.54,23.52,23.54,26.45Z"/>
  </g>
</svg>