<?xml version="1.0" encoding="UTF-8"?>
<svg id="Capa_2" data-name="Capa 2" xmlns="http://www.w3.org/2000/svg" viewBox="0 0 2685.43 2989.43">
  <defs>
    <style>
      .cls-1 {
        fill: #0c3fdf;
      }
    </style>
  </defs>
  <g id="Capa_1-2" data-name="Capa 1">
    <path class="cls-1" d="M0,2416.18v-42.44c2.04-1.38,5.78-3.68,6.57-7.04,7.18-30.32,18.67-57.88,36.75-85.71,77.98-120.09,196.49-181.13,342.31-249.37,82.81-38.75,161.17-79.95,232.51-129.74,29.82-20.81,87.51-76.79,58.34-99.8-6.25-4.93-15.79-5.7-24.98-4.31l-41.08,6.23c-10.16,1.54-20.8.81-27.2-4.84-5.12-4.52-8.61-12.33-7.39-19.88l11.36-70.3c.64-3.97-.42-7.9-4.62-9.62-16.38-6.71-113.4,78.01-192.01,102.7-47,14.76-98.36,8.67-134.61-17.64-31.74-23.04-36.48-56.04-11.72-84.59,54-62.27,124.42-113.68,204.83-157.76,160.28-87.87,997.71-516.3,997.71-516.3,40.3-18.41,122.7-62.87,117.1-103.58-3.81-27.68-37.28-47.4-73.01-49.28-104.71-5.49-260.3,53.5-342.32,101.6-64.06,37.57-118.43,93.49-196.47,117.21-32.13,9.76-67.88,10.46-96.62-3.65-31.62-15.53-38.89-44.77-16.8-67.35,16.34-16.7,36.89-29.89,61.12-40.48,44.68-19.52,90.45-34.99,139.83-46.78l125.12-29.88c174.17-41.6,250.26-86.46,390.41-172.63,42.68-26.24,82.56-51.91,127.42-76.22,46.34-25.1,171.16-70.35,215.57-37.35,21.78,16.19,20.89,42.21,7.33,61.54-11.29,16.09-25.93,28.43-41.39,42.07-26.21,23.11-77.92,70.83-34.15,96.31,43.88,25.55,115.88-32.56,137.47-64.16l33.23-48.62c37.01-54.15,81.59-64.57,138.23-104.21,82.91-58.02,22.3-105.12,101.11-193.42l161.03-180.43c72.9-81.68,172.76-175.63,284.44-226.45-143.04,104.33-252.19,228.85-315.44,370.98l-89.55,201.24c-64.56,145.08-181.88,271.17-340.17,366.77-49.97,30.18-99.54,56-151.52,83.94-66.9,35.96-128.74,72.48-188.89,115.2-98.46,69.93-192.73,139.88-284.26,214.98-61.11,50.14-233.33,203.9-184.36,272.94,21.3,30.03,63.51,44.97,108.36,44.69,65.62-.41,124.31-20.83,190.95-19.87,58.83.85,103.21,30.98,110.05,75.74,14.72,96.18-54.62,203.1-128.44,279.92-68.62,71.41-154.85,126.31-254.61,171.65l-154.44,70.19c-223.72,101.68-327.39,279.98-372.26,467.23-18.33,76.51-45.08,161.8-114.04,220.86-44.54,38.15-105.38,56.29-172.3,52.46-190.44-10.91-193.95-201.84-166.99-307.15,37.8-147.66,137.39-282,285.86-382.03,83.35-56.16,168.5-106.39,259.42-154.6,61.26-32.48,148.24-84.32,177.74-136.04,3.68-6.46,1.72-12.93-1.14-16.63-21.77-28.07-177.66,65.18-207.11,80.77l-235.39,124.62c-159.48,84.43-251,159-380.21,264.4-11.77,9.6-32.31,14.32-45.36,6.58-22.95-13.61-17.85-44.06-31.33-52.67Z"/>
  </g>
</svg>